<?xml version="1.0" standalone="no"?>
<!DOCTYPE svg PUBLIC "-//W3C//DTD SVG 20010904//EN"
 "http://www.w3.org/TR/2001/REC-SVG-20010904/DTD/svg10.dtd">
<svg version="1.0" xmlns="http://www.w3.org/2000/svg"
 width="562.000000pt" height="562.000000pt" viewBox="0 0 562.000000 562.000000"
 preserveAspectRatio="xMidYMid meet">
<metadata>
Created by potrace 1.11, written by Peter Selinger 2001-2013
</metadata>
<g transform="translate(0.000000,562.000000) scale(0.100000,-0.100000)"
fill="#000000" stroke="none">
<path d="M1344 4993 c-22 -15 -284 -434 -284 -454 0 -16 7 -19 54 -19 54 0 55
0 58 -32 3 -27 9 -34 43 -47 22 -8 41 -15 42 -16 1 0 -164 -567 -366 -1260
-203 -693 -366 -1266 -364 -1272 3 -8 23 -13 47 -13 39 0 43 -3 55 -35 9 -27
20 -37 49 -46 25 -7 182 -9 497 -7 409 4 466 6 515 22 142 46 246 133 300 248
16 35 182 586 370 1224 187 639 347 1179 356 1200 l16 39 12 -35 c9 -27 20
-38 52 -50 l42 -15 -369 -1260 c-203 -693 -367 -1265 -364 -1272 2 -8 22 -13
50 -13 37 0 45 -3 45 -19 0 -10 9 -29 19 -42 19 -24 22 -24 239 -27 243 -4
278 3 305 55 8 15 95 303 192 638 98 336 185 618 193 627 12 14 42 17 213 20
l199 3 26 26 c19 20 39 71 80 205 30 99 54 193 54 211 0 36 -38 73 -76 73 -16
0 -24 6 -24 18 0 37 -19 42 -163 42 l-139 0 6 24 c3 14 44 156 91 318 59 200
85 306 83 333 l-3 40 230 5 c251 5 277 11 291 65 8 34 54 36 54 3 1 -60 33
-68 266 -68 107 0 194 -2 194 -5 0 -2 -281 -570 -625 -1262 -344 -691 -623
-1263 -621 -1270 4 -8 24 -13 56 -13 45 0 50 -2 50 -22 1 -67 6 -68 596 -68
574 0 578 0 608 58 33 63 146 380 146 409 0 36 -24 60 -68 69 -18 4 -32 12
-31 18 4 35 0 36 -185 38 l-185 3 475 970 c274 559 476 983 476 1000 1 17 -2
37 -6 46 -5 13 3 24 34 45 35 24 58 58 140 209 54 99 101 192 105 207 9 34
-31 78 -70 78 -17 0 -25 5 -25 18 0 42 1 42 -608 42 -338 0 -591 -4 -601 -9
-9 -5 -27 -32 -40 -59 l-23 -49 -28 29 c-19 18 -39 28 -59 28 -23 0 -29 4 -25
15 4 8 1 22 -6 30 -19 22 -1071 23 -1093 0 -8 -8 -50 -71 -93 -139 -77 -122
-94 -142 -94 -111 0 25 -36 88 -68 118 -34 33 -170 112 -221 129 -42 13 -1078
24 -1097 11z m1121 -94 c76 -21 115 -79 115 -172 0 -41 -85 -342 -364 -1296
-201 -683 -374 -1261 -386 -1284 -29 -57 -112 -139 -167 -167 -103 -51 -120
-53 -568 -57 -253 -2 -426 0 -434 6 -12 8 46 218 340 1221 220 752 361 1219
372 1231 16 17 33 19 192 19 170 0 175 -1 175 -21 0 -11 -133 -473 -296 -1025
-162 -553 -293 -1011 -291 -1018 3 -8 17 -11 35 -8 23 3 30 0 35 -17 7 -27 45
-41 110 -41 100 0 160 34 187 105 37 98 590 2021 590 2053 0 47 -18 73 -74
106 l-45 26 -378 0 c-208 0 -384 4 -392 9 -10 6 -11 13 -2 29 29 54 164 260
187 285 l26 27 496 0 c328 0 511 -4 537 -11z m1478 3 c3 -4 -16 -81 -42 -172
l-47 -165 -510 -3 c-492 -2 -554 -1 -554 16 0 13 169 275 196 305 l26 27 463
0 c255 0 466 -3 468 -8z m1363 -9 c-14 -37 -170 -318 -180 -325 -13 -10 -1012
-6 -1021 3 -10 11 142 306 167 323 20 14 84 16 531 16 481 0 509 -1 503 -17z
m-3321 -540 c-12 -43 -145 -499 -295 -1013 -149 -514 -278 -945 -286 -957 -16
-25 -70 -33 -62 -10 3 6 135 454 293 995 266 904 288 986 277 1014 -14 39 -5
48 54 48 l42 0 -23 -77z m1337 28 c-2 -13 -46 -169 -98 -347 -52 -178 -94
-330 -94 -339 0 -10 10 -15 33 -15 24 0 35 -6 42 -22 14 -31 40 -36 203 -37
78 -1 142 -5 142 -9 0 -14 -90 -316 -99 -332 -7 -12 -47 -16 -232 -20 l-224
-5 -190 -650 c-105 -357 -194 -658 -198 -667 -6 -16 -24 -18 -176 -18 -177 0
-201 3 -201 26 0 19 698 2402 710 2425 19 35 42 39 215 36 l170 -2 -3 -24z
m1714 -4 c-3 -12 -222 -465 -486 -1006 -265 -541 -480 -991 -478 -1000 2 -11
12 -15 34 -13 25 3 33 -1 37 -17 9 -34 49 -41 238 -41 l179 0 -1 -22 c0 -13
-28 -97 -62 -188 l-62 -165 -502 0 c-276 0 -504 3 -507 6 -11 11 1201 2436
1225 2453 20 13 54 16 207 16 l184 0 -6 -23z"/>
<path d="M513 1731 c-29 -14 -48 -31 -61 -58 -23 -45 -169 -507 -178 -562 -9
-55 16 -106 59 -122 20 -7 41 -23 48 -36 14 -25 83 -63 117 -63 12 0 22 -4 22
-8 0 -16 -33 -107 -42 -117 -5 -5 -70 -12 -146 -15 l-136 -5 -39 -123 c-21
-68 -36 -130 -33 -138 3 -9 21 -14 49 -14 40 0 44 -2 52 -32 17 -55 35 -59
290 -56 220 3 232 4 276 27 l46 24 32 -24 c32 -24 36 -24 271 -24 l239 0 35
34 34 33 17 -25 c23 -36 64 -47 167 -47 104 0 150 17 170 61 10 22 20 29 40
29 23 0 28 -5 28 -23 0 -48 32 -62 149 -65 119 -3 166 11 188 59 7 14 42 120
78 235 47 149 65 224 65 264 0 38 6 62 19 79 l19 25 -4 -25 c-32 -198 -73
-534 -67 -540 4 -4 26 -9 48 -11 32 -2 41 -7 43 -24 2 -12 12 -30 24 -40 17
-17 38 -19 153 -19 120 0 136 2 162 21 20 15 53 75 113 202 47 99 86 179 87
178 2 -1 -18 -68 -43 -149 -25 -81 -42 -152 -39 -157 3 -6 26 -10 49 -10 40 0
44 -2 50 -30 9 -48 56 -63 187 -58 98 3 110 6 134 28 14 13 30 41 37 62 6 21
13 38 15 38 13 0 62 -32 83 -55 57 -62 88 -69 295 -73 221 -5 256 2 287 54 25
43 53 45 62 4 11 -55 46 -62 302 -58 219 3 223 3 248 27 24 22 80 149 87 196
7 47 -10 74 -54 87 -31 10 -42 18 -42 33 0 17 -8 20 -51 23 l-52 3 20 62 c28
91 33 95 145 99 89 3 96 5 118 31 26 30 65 146 65 194 0 36 -24 60 -68 69 -25
5 -32 12 -32 30 0 22 -4 24 -44 24 l-45 0 20 58 c11 31 27 63 36 70 10 7 48
12 95 12 83 0 129 15 147 48 19 36 51 147 51 177 0 38 -24 62 -68 71 -25 5
-32 12 -32 30 l0 24 -280 0 -280 0 -6 -25 c-8 -32 -41 -34 -40 -2 l1 22 -285
3 c-157 1 -299 0 -317 -3 -18 -3 -45 -16 -60 -29 -29 -23 -67 -23 -69 2 -1 6
-2 17 -2 22 -1 6 -63 10 -162 10 l-160 0 -6 -25 c-8 -31 -21 -33 -20 -2 1 22
0 22 -157 25 l-157 3 -16 -34 c-16 -33 -17 -33 -54 -23 -22 5 -37 13 -34 17 2
4 1 14 -2 23 -5 14 -28 16 -159 16 -165 0 -165 0 -165 -55 0 -22 -2 -23 -32
-12 -18 7 -41 20 -51 30 -10 10 -29 22 -43 27 -14 6 -154 10 -314 10 l-290 0
-6 -25 c-4 -16 -13 -25 -25 -25 -14 0 -19 7 -19 25 l0 25 -279 0 -279 0 -11
-31 c-8 -23 -15 -30 -27 -25 -8 3 -22 6 -30 6 -8 0 -14 10 -14 25 l0 25 -252
0 c-227 0 -257 -2 -295 -19z m471 -70 c3 -4 -4 -36 -15 -70 l-21 -61 -123 0
c-103 0 -126 -3 -143 -17 -22 -20 -96 -249 -90 -280 2 -14 11 -17 36 -15 26 3
32 0 32 -16 0 -26 40 -42 110 -42 62 0 90 -15 90 -50 0 -28 -158 -531 -175
-557 -8 -12 -32 -27 -52 -32 -46 -13 -352 -14 -372 -2 -11 7 -11 18 -1 59 18
77 34 86 155 92 146 7 171 29 211 182 21 78 13 121 -23 126 -11 2 -23 12 -26
23 -5 17 -14 19 -85 19 -88 0 -112 12 -112 56 0 40 156 523 176 546 37 41 70
47 251 48 94 0 174 -4 177 -9z m641 -23 c-4 -18 -13 -48 -20 -68 l-12 -35
-113 -3 c-63 -1 -119 -7 -126 -13 -17 -14 -86 -235 -82 -262 2 -18 9 -21 36
-19 18 2 32 0 31 -5 -5 -31 29 -53 86 -53 19 0 36 -4 39 -9 3 -5 -2 -35 -12
-67 l-18 -59 -119 -5 -120 -5 -38 -115 c-21 -63 -39 -133 -40 -155 -2 -39 -2
-40 31 -37 26 3 32 0 32 -16 0 -25 39 -42 95 -42 25 0 45 -4 45 -9 0 -14 -42
-124 -53 -139 -11 -15 -353 -17 -377 -2 -12 7 9 83 128 462 78 249 156 497
172 551 45 143 34 137 256 137 l186 0 -7 -32z m743 20 c7 -7 12 -25 12 -41 0
-35 -126 -442 -147 -475 -8 -13 -28 -28 -44 -34 -32 -11 -38 -38 -14 -58 8 -7
15 -27 15 -44 0 -29 -122 -440 -142 -478 -7 -14 -21 -18 -63 -18 -65 0 -85 7
-85 29 0 9 25 96 55 193 30 97 55 190 55 207 0 32 -33 76 -50 66 -5 -3 -14 4
-20 15 -10 18 -19 21 -73 18 l-62 -3 -37 -115 c-20 -63 -57 -181 -83 -262
l-46 -148 -62 0 c-34 0 -68 4 -76 9 -12 8 14 102 153 548 93 296 175 550 182
565 7 14 19 28 26 31 7 3 121 6 254 6 174 1 243 -2 252 -11z m371 -15 c0 -16
-17 -122 -38 -238 -28 -158 -35 -214 -27 -227 9 -15 14 -11 33 35 13 28 29 66
37 82 14 29 14 29 9 -22 -6 -54 1 -63 29 -40 30 25 59 77 128 238 38 90 79
172 91 182 15 12 39 17 80 17 50 0 59 -3 58 -17 0 -10 -118 -270 -262 -578
l-262 -560 -70 -3 c-96 -4 -115 2 -115 36 0 15 33 265 74 555 58 416 78 533
92 548 13 15 31 19 81 19 62 0 63 0 62 -27z m761 10 c-1 -21 -342 -1112 -353
-1130 -10 -15 -124 -18 -146 -4 -12 8 14 102 153 548 93 296 175 550 182 565
17 33 25 36 102 37 53 1 62 -2 62 -16z m727 -16 c-3 -18 -22 -85 -42 -149
l-36 -117 -50 -10 c-74 -16 -93 -15 -84 7 4 9 10 38 12 64 6 54 -9 82 -39 75
-11 -3 -18 0 -17 6 4 33 -2 37 -58 37 -63 0 -75 -5 -90 -35 -24 -45 -234 -731
-231 -755 2 -18 10 -26 28 -28 14 -2 35 -16 47 -30 20 -25 27 -27 120 -30 54
-2 101 -7 105 -10 4 -4 -6 -38 -21 -77 l-28 -70 -172 -3 c-95 -1 -189 2 -210
8 -45 12 -67 46 -64 104 2 49 282 953 307 991 32 49 62 54 305 55 l224 0 -6
-33z m608 1 c-4 -18 -13 -48 -20 -68 l-12 -35 -113 -3 c-63 -1 -119 -7 -126
-13 -17 -14 -86 -235 -82 -262 2 -18 9 -21 36 -19 18 2 32 0 31 -5 -5 -31 29
-53 86 -53 19 0 36 -4 39 -9 3 -5 -2 -35 -12 -67 l-18 -59 -119 -5 -120 -5
-38 -115 c-21 -63 -39 -133 -40 -155 -2 -39 -2 -40 31 -37 26 3 32 0 32 -16 0
-25 39 -42 95 -42 25 0 45 -4 45 -9 0 -14 -42 -124 -53 -139 -11 -14 -353 -17
-376 -3 -12 8 14 102 153 548 93 296 175 550 182 565 7 14 19 28 26 31 7 3 95
6 196 6 l184 1 -7 -32z m-3805 -244 c0 -11 -72 -234 -75 -234 -13 0 -64 28
-88 47 -15 12 -43 25 -61 28 l-34 7 19 60 c28 93 35 98 146 98 51 0 93 -3 93
-6z m610 -2 c0 -4 -13 -46 -28 -92 -23 -69 -33 -86 -50 -88 -18 -3 -22 2 -22
22 0 24 -3 26 -44 26 l-45 0 20 58 c11 31 27 63 36 70 18 13 133 17 133 4z
m2340 -130 c0 -10 7 -28 16 -40 17 -25 59 -28 133 -11 24 5 46 7 49 4 4 -4
-141 -492 -154 -516 -2 -4 -14 -4 -27 -2 -16 3 -23 11 -23 26 1 21 -4 22 -101
25 -57 1 -103 6 -103 10 0 13 155 497 163 510 12 19 47 15 47 -6z m-2506 -399
c-8 -27 -22 -74 -31 -105 -11 -41 -21 -58 -33 -58 -11 0 -16 8 -16 23 1 20 -4
22 -50 25 l-52 3 20 62 c27 87 38 97 114 97 l63 0 -15 -47z"/>
<path d="M1962 1533 c-18 -34 -103 -317 -98 -328 2 -7 17 -10 34 -7 23 3 30 0
35 -17 6 -26 51 -44 89 -36 58 13 85 49 123 165 49 152 48 163 -22 210 -35 24
-55 30 -98 30 -42 0 -56 -4 -63 -17z"/>
</g>
</svg>
